Coordinates
version=1
nRows=5
nColumns=63
inDegrees=yes

Units are S.I. units (second, meters, Newtons, ...)
If the header above contains a line with 'inDegrees', this indicates whether rotational values are in degrees (yes) or radians (no).

endheader
time	pelvis_tilt	pelvis_list	pelvis_rotation	pelvis_tx	pelvis_ty	pelvis_tz	hip_flexion_r	hip_adduction_r	hip_rotation_r	knee_angle_r	knee_angle_r_beta	ankle_angle_r	subtalar_angle_r	mtp_angle_r	hip_flexion_l	hip_adduction_l	hip_rotation_l	knee_angle_l	knee_angle_l_beta	ankle_angle_l	subtalar_angle_l	mtp_angle_l	L5_S1_Flex_Ext	L5_S1_Lat_Bending	L5_S1_axial_rotation	L4_L5_Flex_Ext	L4_L5_Lat_Bending	L4_L5_axial_rotation	L3_L4_Flex_Ext	L3_L4_Lat_Bending	L3_L4_axial_rotation	L2_L3_Flex_Ext	L2_L3_Lat_Bending	L2_L3_axial_rotation	L1_L2_Flex_Ext	L1_L2_Lat_Bending	L1_L2_axial_rotation	L1_T12_Flex_Ext	L1_T12_Lat_Bending	L1_T12_axial_rotation	Abs_r3	Abs_r2	Abs_r1	Abs_t1	Abs_t2	neck_flexion	neck_bending	neck_rotation	arm_flex_r	arm_add_r	arm_rot_r	elbow_flex_r	pro_sup_r	wrist_flex_r	wrist_dev_r	arm_flex_l	arm_add_l	arm_rot_l	elbow_flex_l	pro_sup_l	wrist_flex_l	wrist_dev_l
      0.00000000	     -2.89667644	     -3.57944933	     73.86931441	      0.19458847	      0.88572409	      0.54333697	      7.78468785	      2.69369617	     -7.73413762	     12.03946424	      0.21012829	     39.70958905	     10.22296762	      0.00000000	      4.90777152	     -1.64602228	     20.61374900	      3.52809315	      0.06157684	     36.22225335	     -9.39043285	      0.00000000	      0.44259847	      0.42134279	     -0.58344193	      0.82194962	      0.56038592	     -0.61990705	      0.72714503	      1.02445287	     -0.61990705	      0.50584579	      1.02445287	     -0.51051169	      0.41099694	      0.85920222	     -0.47404657	      0.25290077	      0.65265999	     -0.43758145	      3.16143662	      4.76631395	     -3.24492900	      0.00000000	      0.00000000	     27.33080880	     -2.42575312	     -9.27220956	     20.34326484	     -5.04732506	     83.16034211	     31.65877852	     33.91487305	      2.47033542	      1.29220264	     22.29917199	     -0.11647144	     79.77527521	     28.95783736	     60.65968897	     11.65759169	      1.98453703
      0.02127660	     -2.40289589	     -3.57822821	     73.62971867	      0.19453932	      0.88559549	      0.54270561	      7.65393285	      3.35148604	     -6.38689549	     12.01523298	      0.20970538	     39.36093482	      8.40752684	      0.00000000	      4.32716798	     -2.07221744	     22.27606842	      3.70584294	      0.06467916	     35.04258861	    -13.16260211	      0.00000000	      0.47295088	      0.48082607	     -0.52689276	      0.87831708	      0.63949867	     -0.55982356	      0.77701100	      1.16908050	     -0.55982356	      0.54053556	      1.16908050	     -0.46103117	      0.43918219	      0.98050051	     -0.42810037	      0.27024413	      0.74479958	     -0.39516957	      3.37824083	      5.43920062	     -2.93041946	      0.00000000	      0.00000000	     27.43026096	     -3.04757487	    -11.45313359	     20.22826268	     -5.43874957	     82.04108125	     32.46372266	     34.86363204	      2.75380516	      2.12875816	     21.93773409	     -0.35803403	     78.87998907	     29.06056344	     58.62648470	     12.64070861	      2.33641111
      0.04255319	     -2.00279944	     -3.56386297	     73.61021003	      0.19425438	      0.88542963	      0.54244447	      7.58027751	      3.75678139	     -6.30304734	     12.10075788	      0.21119807	     39.29988139	      8.20661064	      0.00000000	      4.08131690	     -2.41587868	     21.92070057	      4.09991446	      0.07155701	     34.81009141	    -13.60394742	      0.00000000	      0.48376842	      0.53287515	     -0.52499564	      0.89840634	      0.70872395	     -0.55780787	      0.79478314	      1.29563265	     -0.55780787	      0.55289893	      1.29563265	     -0.45937119	      0.44922736	      1.08663901	     -0.42655896	      0.27642528	      0.82542361	     -0.39374673	      3.45550948	      6.02799030	     -2.91986826	      0.00000000	      0.00000000	     27.53244513	     -2.94570541	    -11.80118307	     20.39998391	     -5.61974518	     82.24656639	     32.79588354	     35.11264549	      2.97011243	      2.40987979	     21.71239076	     -0.49818980	     78.30994228	     29.11309086	     57.84659644	     12.89586425	      2.08615899
      0.06382979	     -1.93313498	     -3.53509817	     73.72162542	      0.19416457	      0.88512013	      0.54180705	      7.51760828	      3.82713931	     -6.33051428	     12.12259525	      0.21157920	     39.42811070	      8.09767495	      0.00000000	      3.89603188	     -2.46846066	     21.83633913	      4.23370764	      0.07389214	     34.60221479	    -13.65732466	      0.00000000	      0.50609925	      0.54281445	     -0.50668775	      0.93987691	      0.72194322	     -0.53835573	      0.83147045	      1.31979906	     -0.53835573	      0.57842083	      1.31979906	     -0.44335178	      0.46996376	      1.10690723	     -0.41168380	      0.28918511	      0.84081959	     -0.38001581	      3.61501631	      6.14042564	     -2.81804526	      0.00000000	      0.00000000	     27.61035819	     -2.99944004	    -11.85503696	     20.31143411	     -5.60080787	     82.37324100	     32.77613027	     35.18794798	      2.99114247	      2.50068300	     21.56063293	     -0.49527720	     78.24329614	     29.02416760	     57.69442420	     12.87760490	      2.10750912
      0.08510638	     -1.52780416	     -3.59618987	     73.60354055	      0.19385065	      0.88498211	      0.54177010	      7.37777456	      4.77444609	     -1.52241325	     11.78243115	      0.20564222	     38.30852403	      1.96854098	      0.00000000	      3.72979796	     -2.84919267	     22.77496270	      4.21712154	      0.07360266	     34.25850726	    -15.24428794	      0.00000000	      0.49690321	      0.59588814	     -0.45131051	      0.92279896	      0.79253122	     -0.47951742	      0.81636229	      1.44884241	     -0.47951742	      0.56791068	      1.44884241	     -0.39489670	      0.46142432	      1.21513509	     -0.36668979	      0.28393050	      0.92303072	     -0.33848288	      3.54932997	      6.74080577	     -2.51005366	      0.00000000	      0.00000000	     27.54715642	     -4.42366201	    -13.52750200	     20.60206261	     -5.69361108	     82.96596563	     32.36674490	     38.23619602	      3.79246881	      2.70023791	     22.37887037	     -0.00247632	     83.71240930	     28.64619277	     44.76024447	     10.73517355	      2.88126438
